<svg width="122" height="122" viewBox="0 0 122 122" fill="none" xmlns="http://www.w3.org/2000/svg">
<g filter="url(#filter0_d_340_46)">
<rect x="25" y="10" width="72" height="72" rx="36" fill="url(#paint0_linear_340_46)"/>
</g>
<path d="M54 34C51.2386 34 49 36.2386 49 39V53C49 55.7614 51.2386 58 54 58H68C70.7614 58 73 55.7614 73 53V39C73 36.2386 70.7614 34 68 34H54ZM69 53.3333C69 53.7015 68.7015 54 68.3333 54H53.6667C53.2985 54 53 53.7015 53 53.3333C53 52.9651 53.2985 52.6667 53.6667 52.6667H68.3333C68.7015 52.6667 69 52.9651 69 53.3333ZM69 50.6667C69 51.0349 68.7015 51.3333 68.3333 51.3333H53.6667C53.2985 51.3333 53 51.0349 53 50.6667C53 50.2985 53.2985 50 53.6667 50H68.3333C68.7015 50 69 50.2985 69 50.6667ZM69 42C69 44.2091 67.2091 46 65 46H57C54.7909 46 53 44.2091 53 42C53 39.7909 54.7909 38 57 38H65C67.2091 38 69 39.7909 69 42Z" fill="white"/>
<defs>
<filter id="filter0_d_340_46" x="0" y="0" width="122" height="122" filterUnits="userSpaceOnUse" color-interpolation-filters="sRGB">
<feFlood flood-opacity="0" result="BackgroundImageFix"/>
<feColorMatrix in="SourceAlpha" type="matrix" values="0 0 0 0 0 0 0 0 0 0 0 0 0 0 0 0 0 0 127 0" result="hardAlpha"/>
<feOffset dy="15"/>
<feGaussianBlur stdDeviation="12.5"/>
<feColorMatrix type="matrix" values="0 0 0 0 0 0 0 0 0 0 0 0 0 0 0 0 0 0 0.06 0"/>
<feBlend mode="normal" in2="BackgroundImageFix" result="effect1_dropShadow_340_46"/>
<feBlend mode="normal" in="SourceGraphic" in2="effect1_dropShadow_340_46" result="shape"/>
</filter>
<linearGradient id="paint0_linear_340_46" x1="61" y1="10" x2="61" y2="82" gradientUnits="userSpaceOnUse">
<stop stop-color="#008687"/>
<stop offset="0.0001" stop-color="#0EA7AD"/>
<stop offset="1" stop-color="#008D7B"/>
</linearGradient>
</defs>
</svg>
