<svg width="24" height="24" viewBox="0 0 24 24" fill="none" xmlns="http://www.w3.org/2000/svg">
<mask id="mask0_915_1829" style="mask-type:luminance" maskUnits="userSpaceOnUse" x="0" y="0" width="24" height="24">
<path d="M24 12C24 5.37258 18.6274 0 12 0C5.37258 0 0 5.37258 0 12C0 18.6274 5.37258 24 12 24C18.6274 24 24 18.6274 24 12Z" fill="white"/>
</mask>
<g mask="url(#mask0_915_1829)">
<path opacity="0.2" d="M12 24C18.6274 24 24 18.6274 24 12C24 5.37258 18.6274 0 12 0C5.37258 0 0 5.37258 0 12C0 18.6274 5.37258 24 12 24Z" fill="#63BEFF"/>
<g opacity="0.6">
<path opacity="0.1" d="M22.4147 13.2017C22.3492 13.2017 22.2962 13.1469 22.2962 13.0793C22.2962 13.0117 22.3492 12.9569 22.4147 12.9569C22.4801 12.9569 22.5332 13.0117 22.5332 13.0793C22.5332 13.1469 22.4801 13.2017 22.4147 13.2017Z" fill="#63BEFF"/>
<path opacity="0.1" d="M19.9284 13.2017C19.8629 13.2017 19.8099 13.1469 19.8099 13.0793C19.8099 13.0117 19.8629 12.9569 19.9284 12.9569C19.9938 12.9569 20.0469 13.0117 20.0469 13.0793C20.0469 13.1469 19.9938 13.2017 19.9284 13.2017Z" fill="#63BEFF"/>
<path opacity="0.1" d="M17.6764 13.2017C17.611 13.2017 17.5579 13.1469 17.5579 13.0793C17.5579 13.0117 17.611 12.9569 17.6764 12.9569C17.7419 12.9569 17.7949 13.0117 17.7949 13.0793C17.7949 13.1469 17.7419 13.2017 17.6764 13.2017Z" fill="#63BEFF"/>
<path opacity="0.1" d="M15.4225 13.2017C15.357 13.2017 15.304 13.1469 15.304 13.0793C15.304 13.0117 15.357 12.9569 15.4225 12.9569C15.488 12.9569 15.541 13.0117 15.541 13.0793C15.541 13.1469 15.488 13.2017 15.4225 13.2017Z" fill="#63BEFF"/>
<path opacity="0.1" d="M13.1706 13.2017C13.1051 13.2017 13.052 13.1469 13.052 13.0793C13.052 13.0117 13.1051 12.9569 13.1706 12.9569C13.236 12.9569 13.2891 13.0117 13.2891 13.0793C13.2891 13.1469 13.236 13.2017 13.1706 13.2017Z" fill="#63BEFF"/>
<path opacity="0.2" d="M22.4152 11.0008C22.2842 11.0008 22.1781 10.8913 22.1781 10.7563C22.1781 10.6212 22.2842 10.5117 22.4152 10.5117C22.5462 10.5117 22.6523 10.6212 22.6523 10.7563C22.6523 10.8913 22.5462 11.0008 22.4152 11.0008Z" fill="#63BEFF"/>
<path opacity="0.2" d="M19.9269 11.0008C19.796 11.0008 19.6898 10.8913 19.6898 10.7563C19.6898 10.6212 19.796 10.5117 19.9269 10.5117C20.0579 10.5117 20.1641 10.6212 20.1641 10.7563C20.1641 10.8913 20.0579 11.0008 19.9269 11.0008Z" fill="#63BEFF"/>
<path opacity="0.2" d="M17.675 11.0008C17.544 11.0008 17.4378 10.8913 17.4378 10.7563C17.4378 10.6212 17.544 10.5117 17.675 10.5117C17.8059 10.5117 17.9121 10.6212 17.9121 10.7563C17.9121 10.8913 17.8059 11.0008 17.675 11.0008Z" fill="#63BEFF"/>
<path opacity="0.2" d="M15.4211 11.0008C15.2901 11.0008 15.1839 10.8913 15.1839 10.7563C15.1839 10.6212 15.2901 10.5117 15.4211 10.5117C15.552 10.5117 15.6582 10.6212 15.6582 10.7563C15.6582 10.8913 15.552 11.0008 15.4211 11.0008Z" fill="#63BEFF"/>
<path opacity="0.2" d="M13.1711 11.0008C13.0401 11.0008 12.9339 10.8913 12.9339 10.7563C12.9339 10.6212 13.0401 10.5117 13.1711 10.5117C13.302 10.5117 13.4082 10.6212 13.4082 10.7563C13.4082 10.8913 13.302 11.0008 13.1711 11.0008Z" fill="#63BEFF"/>
<path opacity="0.1" d="M10.9186 10.8815C10.8531 10.8815 10.8001 10.8267 10.8001 10.7591C10.8001 10.6915 10.8531 10.6367 10.9186 10.6367C10.984 10.6367 11.0371 10.6915 11.0371 10.7591C11.0371 10.8267 10.984 10.8815 10.9186 10.8815Z" fill="#63BEFF"/>
<path opacity="0.3" d="M22.414 8.79974C22.2176 8.79974 22.0585 8.63558 22.0585 8.43307C22.0585 8.23057 22.2176 8.06641 22.414 8.06641C22.6104 8.06641 22.7695 8.23057 22.7695 8.43307C22.7695 8.63558 22.6104 8.79974 22.414 8.79974Z" fill="#63BEFF"/>
<path opacity="0.3" d="M19.9257 8.79974C19.7294 8.79974 19.5702 8.63558 19.5702 8.43307C19.5702 8.23057 19.7294 8.06641 19.9257 8.06641C20.1221 8.06641 20.2812 8.23057 20.2812 8.43307C20.2812 8.63558 20.1221 8.79974 19.9257 8.79974Z" fill="#63BEFF"/>
<path opacity="0.3" d="M17.6757 8.79974C17.4794 8.79974 17.3202 8.63558 17.3202 8.43307C17.3202 8.23057 17.4794 8.06641 17.6757 8.06641C17.8721 8.06641 18.0312 8.23057 18.0312 8.43307C18.0312 8.63558 17.8721 8.79974 17.6757 8.79974Z" fill="#63BEFF"/>
<path opacity="0.3" d="M15.4238 8.79974C15.2274 8.79974 15.0682 8.63558 15.0682 8.43307C15.0682 8.23057 15.2274 8.06641 15.4238 8.06641C15.6201 8.06641 15.7793 8.23057 15.7793 8.43307C15.7793 8.63558 15.6201 8.79974 15.4238 8.79974Z" fill="#63BEFF"/>
<path opacity="0.2" d="M13.1711 8.68052C13.0401 8.68052 12.9339 8.57103 12.9339 8.43597C12.9339 8.3009 13.0401 8.19141 13.1711 8.19141C13.302 8.19141 13.4082 8.3009 13.4082 8.43597C13.4082 8.57103 13.302 8.68052 13.1711 8.68052Z" fill="#63BEFF"/>
<path opacity="0.1" d="M10.9186 8.55727C10.8531 8.55727 10.8001 8.50248 10.8001 8.43489C10.8001 8.36729 10.8531 8.3125 10.9186 8.3125C10.984 8.3125 11.0371 8.36729 11.0371 8.43489C11.0371 8.50248 10.984 8.55727 10.9186 8.55727Z" fill="#63BEFF"/>
<path opacity="0.5" d="M22.4146 6.60277C22.1528 6.60277 21.9406 6.38389 21.9406 6.11389C21.9406 5.84388 22.1528 5.625 22.4146 5.625C22.6764 5.625 22.8887 5.84388 22.8887 6.11389C22.8887 6.38389 22.6764 6.60277 22.4146 6.60277Z" fill="#63BEFF"/>
<path opacity="0.5" d="M19.9263 6.60277C19.6645 6.60277 19.4523 6.38389 19.4523 6.11389C19.4523 5.84388 19.6645 5.625 19.9263 5.625C20.1882 5.625 20.4004 5.84388 20.4004 6.11389C20.4004 6.38389 20.1882 6.60277 19.9263 6.60277Z" fill="#63BEFF"/>
<path opacity="0.5" d="M17.6763 6.60277C17.4145 6.60277 17.2023 6.38389 17.2023 6.11389C17.2023 5.84388 17.4145 5.625 17.6763 5.625C17.9382 5.625 18.1504 5.84388 18.1504 6.11389C18.1504 6.38389 17.9382 6.60277 17.6763 6.60277Z" fill="#63BEFF"/>
<path opacity="0.3" d="M15.4238 6.47943C15.2274 6.47943 15.0682 6.31526 15.0682 6.11276C15.0682 5.91026 15.2274 5.74609 15.4238 5.74609C15.6201 5.74609 15.7793 5.91026 15.7793 6.11276C15.7793 6.31526 15.6201 6.47943 15.4238 6.47943Z" fill="#63BEFF"/>
<path opacity="0.2" d="M13.1711 6.35631C13.0401 6.35631 12.9339 6.24681 12.9339 6.11175C12.9339 5.97668 13.0401 5.86719 13.1711 5.86719C13.302 5.86719 13.4082 5.97668 13.4082 6.11175C13.4082 6.24681 13.302 6.35631 13.1711 6.35631Z" fill="#63BEFF"/>
<path opacity="0.1" d="M10.9186 6.23306C10.8531 6.23306 10.8001 6.17826 10.8001 6.11067C10.8001 6.04308 10.8531 5.98828 10.9186 5.98828C10.984 5.98828 11.0371 6.04308 11.0371 6.11067C11.0371 6.17826 10.984 6.23306 10.9186 6.23306Z" fill="#63BEFF"/>
<path opacity="0.5" d="M22.4146 4.27856C22.1528 4.27856 21.9406 4.05967 21.9406 3.78967C21.9406 3.51966 22.1528 3.30078 22.4146 3.30078C22.6764 3.30078 22.8887 3.51966 22.8887 3.78967C22.8887 4.05967 22.6764 4.27856 22.4146 4.27856Z" fill="#63BEFF"/>
<path opacity="0.6" d="M19.927 4.40191C19.5997 4.40191 19.3344 4.12831 19.3344 3.7908C19.3344 3.45329 19.5997 3.17969 19.927 3.17969C20.2542 3.17969 20.5195 3.45329 20.5195 3.7908C20.5195 4.12831 20.2542 4.40191 19.927 4.40191Z" fill="#63BEFF"/>
<path opacity="0.5" d="M17.6763 4.27856C17.4145 4.27856 17.2023 4.05967 17.2023 3.78967C17.2023 3.51966 17.4145 3.30078 17.6763 3.30078C17.9382 3.30078 18.1504 3.51966 18.1504 3.78967C18.1504 4.05967 17.9382 4.27856 17.6763 4.27856Z" fill="#63BEFF"/>
<path opacity="0.3" d="M15.4238 4.15521C15.2274 4.15521 15.0682 3.99104 15.0682 3.78854C15.0682 3.58604 15.2274 3.42188 15.4238 3.42188C15.6201 3.42188 15.7793 3.58604 15.7793 3.78854C15.7793 3.99104 15.6201 4.15521 15.4238 4.15521Z" fill="#63BEFF"/>
<path opacity="0.2" d="M13.1711 4.03599C13.0401 4.03599 12.9339 3.9265 12.9339 3.79143C12.9339 3.65637 13.0401 3.54688 13.1711 3.54688C13.302 3.54688 13.4082 3.65637 13.4082 3.79143C13.4082 3.9265 13.302 4.03599 13.1711 4.03599Z" fill="#63BEFF"/>
<path opacity="0.1" d="M10.9186 3.91287C10.8531 3.91287 10.8001 3.85807 10.8001 3.79048C10.8001 3.72289 10.8531 3.66809 10.9186 3.66809C10.984 3.66809 11.0371 3.72289 11.0371 3.79048C11.0371 3.85807 10.984 3.91287 10.9186 3.91287Z" fill="#63BEFF"/>
<path opacity="0.5" d="M22.4146 1.71215C22.1528 1.71215 21.9406 1.49327 21.9406 1.22326C21.9406 0.953257 22.1528 0.734375 22.4146 0.734375C22.6764 0.734375 22.8887 0.953257 22.8887 1.22326C22.8887 1.49327 22.6764 1.71215 22.4146 1.71215Z" fill="#63BEFF"/>
<path opacity="0.5" d="M19.9263 1.71215C19.6645 1.71215 19.4523 1.49327 19.4523 1.22326C19.4523 0.953257 19.6645 0.734375 19.9263 0.734375C20.1882 0.734375 20.4004 0.953257 20.4004 1.22326C20.4004 1.49327 20.1882 1.71215 19.9263 1.71215Z" fill="#63BEFF"/>
<path opacity="0.5" d="M17.6763 1.71215C17.4145 1.71215 17.2023 1.49327 17.2023 1.22326C17.2023 0.953257 17.4145 0.734375 17.6763 0.734375C17.9382 0.734375 18.1504 0.953257 18.1504 1.22326C18.1504 1.49327 17.9382 1.71215 17.6763 1.71215Z" fill="#63BEFF"/>
<path opacity="0.3" d="M15.4238 1.5888C15.2274 1.5888 15.0682 1.42464 15.0682 1.22213C15.0682 1.01963 15.2274 0.855469 15.4238 0.855469C15.6201 0.855469 15.7793 1.01963 15.7793 1.22213C15.7793 1.42464 15.6201 1.5888 15.4238 1.5888Z" fill="#63BEFF"/>
<path opacity="0.2" d="M13.1711 1.46959C13.0401 1.46959 12.9339 1.36009 12.9339 1.22503C12.9339 1.08996 13.0401 0.980469 13.1711 0.980469C13.302 0.980469 13.4082 1.08996 13.4082 1.22503C13.4082 1.36009 13.302 1.46959 13.1711 1.46959Z" fill="#63BEFF"/>
<path opacity="0.1" d="M10.9186 1.34622C10.8531 1.34622 10.8001 1.29142 10.8001 1.22383C10.8001 1.15624 10.8531 1.10144 10.9186 1.10144C10.984 1.10144 11.0371 1.15624 11.0371 1.22383C11.0371 1.29142 10.984 1.34622 10.9186 1.34622Z" fill="#63BEFF"/>
<path opacity="0.1" d="M1.58531 10.8021C1.65076 10.8021 1.70382 10.8569 1.70382 10.9245C1.70382 10.9921 1.65076 11.0469 1.58531 11.0469C1.51986 11.0469 1.4668 10.9921 1.4668 10.9245C1.4668 10.8569 1.51986 10.8021 1.58531 10.8021Z" fill="#63BEFF"/>
<path opacity="0.1" d="M4.07359 10.8021C4.13904 10.8021 4.1921 10.8569 4.1921 10.9245C4.1921 10.9921 4.13904 11.0469 4.07359 11.0469C4.00814 11.0469 3.95508 10.9921 3.95508 10.9245C3.95508 10.8569 4.00814 10.8021 4.07359 10.8021Z" fill="#63BEFF"/>
<path opacity="0.1" d="M6.32554 10.8021C6.391 10.8021 6.44406 10.8569 6.44406 10.9245C6.44406 10.9921 6.391 11.0469 6.32554 11.0469C6.26009 11.0469 6.20703 10.9921 6.20703 10.9245C6.20703 10.8569 6.26009 10.8021 6.32554 10.8021Z" fill="#63BEFF"/>
<path opacity="0.1" d="M8.5775 10.8021C8.64295 10.8021 8.69601 10.8569 8.69601 10.9245C8.69601 10.9921 8.64295 11.0469 8.5775 11.0469C8.51204 11.0469 8.45898 10.9921 8.45898 10.9245C8.45898 10.8569 8.51204 10.8021 8.5775 10.8021Z" fill="#63BEFF"/>
<path opacity="0.1" d="M10.8294 10.8021C10.8949 10.8021 10.948 10.8569 10.948 10.9245C10.948 10.9921 10.8949 11.0469 10.8294 11.0469C10.764 11.0469 10.7109 10.9921 10.7109 10.9245C10.7109 10.8569 10.764 10.8021 10.8294 10.8021Z" fill="#63BEFF"/>
<path opacity="0.2" d="M1.58479 13.0031C1.71576 13.0031 1.82193 13.1126 1.82193 13.2476C1.82193 13.3827 1.71576 13.4922 1.58479 13.4922C1.45383 13.4922 1.34766 13.3827 1.34766 13.2476C1.34766 13.1126 1.45383 13.0031 1.58479 13.0031Z" fill="#63BEFF"/>
<path opacity="0.2" d="M4.07503 13.0031C4.206 13.0031 4.31217 13.1126 4.31217 13.2476C4.31217 13.3827 4.206 13.4922 4.07503 13.4922C3.94406 13.4922 3.83789 13.3827 3.83789 13.2476C3.83789 13.1126 3.94406 13.0031 4.07503 13.0031Z" fill="#63BEFF"/>
<path opacity="0.2" d="M6.32698 13.0031C6.45795 13.0031 6.56411 13.1126 6.56411 13.2476C6.56411 13.3827 6.45795 13.4922 6.32698 13.4922C6.19601 13.4922 6.08984 13.3827 6.08984 13.2476C6.08984 13.1126 6.19601 13.0031 6.32698 13.0031Z" fill="#63BEFF"/>
<path opacity="0.2" d="M8.57893 13.0031C8.7099 13.0031 8.81607 13.1126 8.81607 13.2476C8.81607 13.3827 8.7099 13.4922 8.57893 13.4922C8.44797 13.4922 8.3418 13.3827 8.3418 13.2476C8.3418 13.1126 8.44797 13.0031 8.57893 13.0031Z" fill="#63BEFF"/>
<path opacity="0.2" d="M10.8289 13.0031C10.9599 13.0031 11.0661 13.1126 11.0661 13.2476C11.0661 13.3827 10.9599 13.4922 10.8289 13.4922C10.698 13.4922 10.5918 13.3827 10.5918 13.2476C10.5918 13.1126 10.698 13.0031 10.8289 13.0031Z" fill="#63BEFF"/>
<path opacity="0.1" d="M13.0814 13.1224C13.1469 13.1224 13.1999 13.1772 13.1999 13.2448C13.1999 13.3124 13.1469 13.3672 13.0814 13.3672C13.016 13.3672 12.9629 13.3124 12.9629 13.2448C12.9629 13.1772 13.016 13.1224 13.0814 13.1224Z" fill="#63BEFF"/>
<path opacity="0.3" d="M1.58601 15.2003C1.78236 15.2003 1.94154 15.3644 1.94154 15.5669C1.94154 15.7694 1.78236 15.9336 1.58601 15.9336C1.38965 15.9336 1.23047 15.7694 1.23047 15.5669C1.23047 15.3644 1.38965 15.2003 1.58601 15.2003Z" fill="#63BEFF"/>
<path opacity="0.3" d="M4.07624 15.2003C4.2726 15.2003 4.43178 15.3644 4.43178 15.5669C4.43178 15.7694 4.2726 15.9336 4.07624 15.9336C3.87988 15.9336 3.7207 15.7694 3.7207 15.5669C3.7207 15.3644 3.87988 15.2003 4.07624 15.2003Z" fill="#63BEFF"/>
<path opacity="0.3" d="M6.32624 15.2003C6.5226 15.2003 6.68177 15.3644 6.68177 15.5669C6.68177 15.7694 6.5226 15.9336 6.32624 15.9336C6.12988 15.9336 5.9707 15.7694 5.9707 15.5669C5.9707 15.3644 6.12988 15.2003 6.32624 15.2003Z" fill="#63BEFF"/>
<path opacity="0.3" d="M8.57819 15.2003C8.77455 15.2003 8.93373 15.3644 8.93373 15.5669C8.93373 15.7694 8.77455 15.9336 8.57819 15.9336C8.38184 15.9336 8.22266 15.7694 8.22266 15.5669C8.22266 15.3644 8.38184 15.2003 8.57819 15.2003Z" fill="#63BEFF"/>
<path opacity="0.2" d="M10.8289 15.3234C10.9599 15.3234 11.0661 15.4329 11.0661 15.5679C11.0661 15.703 10.9599 15.8125 10.8289 15.8125C10.698 15.8125 10.5918 15.703 10.5918 15.5679C10.5918 15.4329 10.698 15.3234 10.8289 15.3234Z" fill="#63BEFF"/>
<path opacity="0.1" d="M13.0814 15.4466C13.1469 15.4466 13.1999 15.5014 13.1999 15.569C13.1999 15.6366 13.1469 15.6914 13.0814 15.6914C13.016 15.6914 12.9629 15.6366 12.9629 15.569C12.9629 15.5014 13.016 15.4466 13.0814 15.4466Z" fill="#63BEFF"/>
<path opacity="0.5" d="M1.58538 17.4011C1.84719 17.4011 2.05943 17.62 2.05943 17.89C2.05943 18.16 1.84719 18.3789 1.58538 18.3789C1.32357 18.3789 1.11133 18.16 1.11133 17.89C1.11133 17.62 1.32357 17.4011 1.58538 17.4011Z" fill="#63BEFF"/>
<path opacity="0.5" d="M4.07366 17.4011C4.33547 17.4011 4.54771 17.62 4.54771 17.89C4.54771 18.16 4.33547 18.3789 4.07366 18.3789C3.81185 18.3789 3.59961 18.16 3.59961 17.89C3.59961 17.62 3.81185 17.4011 4.07366 17.4011Z" fill="#63BEFF"/>
<path opacity="0.5" d="M6.32366 17.4011C6.58547 17.4011 6.79771 17.62 6.79771 17.89C6.79771 18.16 6.58547 18.3789 6.32366 18.3789C6.06185 18.3789 5.84961 18.16 5.84961 17.89C5.84961 17.62 6.06185 17.4011 6.32366 17.4011Z" fill="#63BEFF"/>
<path opacity="0.3" d="M8.57819 17.5245C8.77455 17.5245 8.93373 17.6886 8.93373 17.8911C8.93373 18.0937 8.77455 18.2578 8.57819 18.2578C8.38184 18.2578 8.22266 18.0937 8.22266 17.8911C8.22266 17.6886 8.38184 17.5245 8.57819 17.5245Z" fill="#63BEFF"/>
<path opacity="0.2" d="M10.8289 17.6476C10.9599 17.6476 11.0661 17.7571 11.0661 17.8922C11.0661 18.0272 10.9599 18.1367 10.8289 18.1367C10.698 18.1367 10.5918 18.0272 10.5918 17.8922C10.5918 17.7571 10.698 17.6476 10.8289 17.6476Z" fill="#63BEFF"/>
<path opacity="0.1" d="M13.0814 17.7669C13.1469 17.7669 13.1999 17.8217 13.1999 17.8893C13.1999 17.9569 13.1469 18.0117 13.0814 18.0117C13.016 18.0117 12.9629 17.9569 12.9629 17.8893C12.9629 17.8217 13.016 17.7669 13.0814 17.7669Z" fill="#63BEFF"/>
<path opacity="0.5" d="M1.58538 19.7254C1.84719 19.7254 2.05943 19.9442 2.05943 20.2142C2.05943 20.4842 1.84719 20.7031 1.58538 20.7031C1.32357 20.7031 1.11133 20.4842 1.11133 20.2142C1.11133 19.9442 1.32357 19.7254 1.58538 19.7254Z" fill="#63BEFF"/>
<path opacity="0.6" d="M4.07303 19.602C4.40029 19.602 4.66559 19.8756 4.66559 20.2131C4.66559 20.5506 4.40029 20.8242 4.07303 20.8242C3.74577 20.8242 3.48047 20.5506 3.48047 20.2131C3.48047 19.8756 3.74577 19.602 4.07303 19.602Z" fill="#63BEFF"/>
<path opacity="0.5" d="M6.32366 19.7254C6.58547 19.7254 6.79771 19.9442 6.79771 20.2142C6.79771 20.4842 6.58547 20.7031 6.32366 20.7031C6.06185 20.7031 5.84961 20.4842 5.84961 20.2142C5.84961 19.9442 6.06185 19.7254 6.32366 19.7254Z" fill="#63BEFF"/>
<path opacity="0.3" d="M8.57819 19.8448C8.77455 19.8448 8.93373 20.009 8.93373 20.2115C8.93373 20.414 8.77455 20.5781 8.57819 20.5781C8.38184 20.5781 8.22266 20.414 8.22266 20.2115C8.22266 20.009 8.38184 19.8448 8.57819 19.8448Z" fill="#63BEFF"/>
<path opacity="0.2" d="M10.8289 19.9679C10.9599 19.9679 11.0661 20.0774 11.0661 20.2125C11.0661 20.3475 10.9599 20.457 10.8289 20.457C10.698 20.457 10.5918 20.3475 10.5918 20.2125C10.5918 20.0774 10.698 19.9679 10.8289 19.9679Z" fill="#63BEFF"/>
<path opacity="0.1" d="M13.0814 20.0912C13.1469 20.0912 13.1999 20.146 13.1999 20.2136C13.1999 20.2811 13.1469 20.3359 13.0814 20.3359C13.016 20.3359 12.9629 20.2811 12.9629 20.2136C12.9629 20.146 13.016 20.0912 13.0814 20.0912Z" fill="#63BEFF"/>
<path opacity="0.5" d="M1.58538 22.2918C1.84719 22.2918 2.05943 22.5106 2.05943 22.7806C2.05943 23.0506 1.84719 23.2695 1.58538 23.2695C1.32357 23.2695 1.11133 23.0506 1.11133 22.7806C1.11133 22.5106 1.32357 22.2918 1.58538 22.2918Z" fill="#63BEFF"/>
<path opacity="0.5" d="M4.07366 22.2918C4.33547 22.2918 4.54771 22.5106 4.54771 22.7806C4.54771 23.0506 4.33547 23.2695 4.07366 23.2695C3.81185 23.2695 3.59961 23.0506 3.59961 22.7806C3.59961 22.5106 3.81185 22.2918 4.07366 22.2918Z" fill="#63BEFF"/>
<path opacity="0.5" d="M6.32366 22.2918C6.58547 22.2918 6.79771 22.5106 6.79771 22.7806C6.79771 23.0506 6.58547 23.2695 6.32366 23.2695C6.06185 23.2695 5.84961 23.0506 5.84961 22.7806C5.84961 22.5106 6.06185 22.2918 6.32366 22.2918Z" fill="#63BEFF"/>
<path opacity="0.3" d="M8.57819 22.4112C8.77455 22.4112 8.93373 22.5754 8.93373 22.7779C8.93373 22.9804 8.77455 23.1445 8.57819 23.1445C8.38184 23.1445 8.22266 22.9804 8.22266 22.7779C8.22266 22.5754 8.38184 22.4112 8.57819 22.4112Z" fill="#63BEFF"/>
<path opacity="0.2" d="M10.8289 22.5343C10.9599 22.5343 11.0661 22.6438 11.0661 22.7789C11.0661 22.9139 10.9599 23.0234 10.8289 23.0234C10.698 23.0234 10.5918 22.9139 10.5918 22.7789C10.5918 22.6438 10.698 22.5343 10.8289 22.5343Z" fill="#63BEFF"/>
<path opacity="0.1" d="M13.0814 22.6576C13.1469 22.6576 13.1999 22.7124 13.1999 22.78C13.1999 22.8475 13.1469 22.9023 13.0814 22.9023C13.016 22.9023 12.9629 22.8475 12.9629 22.78C12.9629 22.7124 13.016 22.6576 13.0814 22.6576Z" fill="#63BEFF"/>
</g>
<path d="M12.6975 18C14.395 18 16.064 17.4739 17.1584 16.7385C17.3137 16.6342 17.3996 16.4561 17.3996 16.2691V11.9077C17.3996 11.5763 17.131 11.3077 16.7996 11.3077H13.0482C12.7168 11.3077 12.4482 11.5763 12.4482 11.9077V12.9824C12.4482 13.3138 12.7168 13.5824 13.0482 13.5824H14.7411V14.9671C14.0599 15.3296 13.4285 15.478 12.6975 15.478C10.687 15.478 9.50733 13.9286 9.50733 12.0329C9.50733 9.85716 10.903 8.58792 12.5811 8.58792C13.5937 8.58792 14.3926 8.93766 14.9949 9.39066C15.2406 9.5754 15.5845 9.59148 15.8197 9.39372L16.8977 8.48742C17.155 8.27112 17.1861 7.88304 16.9382 7.65606C15.7409 6.55974 14.1019 6 12.5811 6C8.80947 6 6.59961 8.63736 6.59961 12.0329C6.59961 15.8407 9.29133 18 12.6975 18Z" fill="#63BEFF"/>
</g>
</svg>
