<svg width="23" height="23" viewBox="0 0 23 23" fill="none" xmlns="http://www.w3.org/2000/svg">
<g clip-path="url(#clip0_49_1559)">
<path d="M11.4993 21.9011C11.9018 21.8918 12.288 21.7405 12.5897 21.474C12.8913 21.2074 13.089 20.8427 13.1477 20.4444H9.78711C9.84747 20.8535 10.0544 21.2268 10.3693 21.4947C10.6843 21.7627 11.0859 21.9071 11.4993 21.9011Z" fill="url(#paint0_linear_49_1559)"/>
<path d="M20.9881 17.9717L20.7709 17.78C20.1546 17.231 19.6152 16.6013 19.1673 15.9081C18.678 14.9514 18.3848 13.9066 18.3048 12.835V9.67893C18.3022 9.29556 18.268 8.91306 18.2026 8.53532C17.1203 8.31288 16.1483 7.7233 15.4509 6.8664C14.7535 6.0095 14.3736 4.93792 14.3756 3.83309V3.43059C13.7086 3.10233 12.9919 2.88646 12.2545 2.79171V1.98671C12.2545 1.7605 12.1646 1.54356 12.0047 1.3836C11.8447 1.22365 11.6278 1.13379 11.4016 1.13379C11.1754 1.13379 10.9584 1.22365 10.7985 1.3836C10.6385 1.54356 10.5487 1.7605 10.5487 1.98671V2.82365C8.89759 3.05656 7.38653 3.87893 6.29444 5.13894C5.20236 6.39895 4.60299 8.01152 4.607 9.67893V12.835C4.52698 13.9066 4.23374 14.9514 3.7445 15.9081C3.30423 16.5996 2.77351 17.2292 2.16644 17.78L1.94922 17.9717V19.7734H20.9881V17.9717Z" fill="url(#paint1_linear_49_1559)"/>
<path d="M19.1671 7.02777C20.9313 7.02777 22.3615 5.59757 22.3615 3.83333C22.3615 2.06909 20.9313 0.638885 19.1671 0.638885C17.4029 0.638885 15.9727 2.06909 15.9727 3.83333C15.9727 5.59757 17.4029 7.02777 19.1671 7.02777Z" fill="#1D3675"/>
</g>
<defs>
<linearGradient id="paint0_linear_49_1559" x1="11.4674" y1="20.4444" x2="11.4674" y2="21.9013" gradientUnits="userSpaceOnUse">
<stop stop-color="#008687"/>
<stop offset="0.0001" stop-color="#0EA7AD"/>
<stop offset="1" stop-color="#008D7B"/>
</linearGradient>
<linearGradient id="paint1_linear_49_1559" x1="11.4687" y1="1.13379" x2="11.4687" y2="19.7734" gradientUnits="userSpaceOnUse">
<stop stop-color="#008687"/>
<stop offset="0.0001" stop-color="#0EA7AD"/>
<stop offset="1" stop-color="#008D7B"/>
</linearGradient>
<clipPath id="clip0_49_1559">
<rect width="23" height="23" fill="white"/>
</clipPath>
</defs>
</svg>
