<svg width="25" height="21" viewBox="0 0 25 21" fill="none" xmlns="http://www.w3.org/2000/svg">
<path fill-rule="evenodd" clip-rule="evenodd" d="M22.9248 5.88706C22.8557 5.88235 22.779 5.88235 22.6986 5.88235H19.5261C16.9277 5.88235 14.7051 7.79765 14.7051 10.2941C14.7051 12.7906 16.929 14.7059 19.5261 14.7059H22.6986C22.779 14.7059 22.8557 14.7059 22.9273 14.7012C23.4613 14.671 23.9654 14.4601 24.3457 14.1077C24.726 13.7554 24.9564 13.2856 24.9942 12.7859C24.9992 12.7153 24.9992 12.6388 24.9992 12.5682V8.02C24.9992 7.94941 24.9992 7.87294 24.9942 7.80235C24.9564 7.30266 24.726 6.83286 24.3457 6.48049C23.9654 6.12812 23.4613 5.91721 22.9273 5.88706H22.9248ZM19.2459 11.4706C19.9143 11.4706 20.4559 10.9435 20.4559 10.2941C20.4559 9.64471 19.9143 9.11765 19.2459 9.11765C18.5762 9.11765 18.0347 9.64471 18.0347 10.2941C18.0347 10.9435 18.5762 11.4706 19.2459 11.4706Z" fill="#213D85"/>
<path fill-rule="evenodd" clip-rule="evenodd" d="M23.2482 16.4706C23.2907 16.469 23.333 16.4769 23.3716 16.4939C23.4103 16.5108 23.4442 16.5363 23.4707 16.5681C23.4971 16.6 23.5154 16.6374 23.5239 16.6773C23.5324 16.7171 23.531 16.7584 23.5198 16.7976C23.274 17.6353 22.882 18.3506 22.254 18.9506C21.3336 19.8329 20.1674 20.2224 18.7271 20.4082C17.3262 20.5882 15.5381 20.5882 13.2794 20.5882H10.684C8.42529 20.5882 6.63602 20.5882 5.23631 20.4082C3.79605 20.2224 2.62983 19.8318 1.70939 18.9518C0.790178 18.0706 0.382186 16.9541 0.188021 15.5753C1.46495e-07 14.2341 0 12.5224 0 10.36V10.2282C0 8.06588 1.46495e-07 6.35294 0.188021 5.01177C0.382186 3.63294 0.790178 2.51647 1.70939 1.63529C2.62983 0.755294 3.79605 0.364706 5.23631 0.178823C6.63725 -5.25923e-08 8.42529 0 10.684 0H13.2794C15.5381 0 17.3274 1.40246e-07 18.7271 0.18C20.1674 0.365883 21.3336 0.75647 22.254 1.63647C22.882 2.23882 23.274 2.95294 23.5198 3.79059C23.531 3.82984 23.5324 3.87109 23.5239 3.91096C23.5154 3.95084 23.4971 3.98823 23.4707 4.0201C23.4442 4.05196 23.4103 4.0774 23.3716 4.09435C23.333 4.1113 23.2907 4.11928 23.2482 4.11765H20.1465C16.6601 4.11765 13.5879 6.75294 13.5879 10.2941C13.5879 13.8353 16.6601 16.4706 20.1465 16.4706H23.2482ZM4.60835 4.70588C4.36391 4.70588 4.12948 4.79884 3.95663 4.96432C3.78378 5.12979 3.68668 5.35422 3.68668 5.58824C3.68668 5.82225 3.78378 6.04668 3.95663 6.21215C4.12948 6.37763 4.36391 6.47059 4.60835 6.47059H9.52392C9.76836 6.47059 10.0028 6.37763 10.1756 6.21215C10.3485 6.04668 10.4456 5.82225 10.4456 5.58824C10.4456 5.35422 10.3485 5.12979 10.1756 4.96432C10.0028 4.79884 9.76836 4.70588 9.52392 4.70588H4.60835Z" fill="url(#paint0_linear_49_1556)"/>
<defs>
<linearGradient id="paint0_linear_49_1556" x1="11.7647" y1="0" x2="11.7647" y2="20.5882" gradientUnits="userSpaceOnUse">
<stop stop-color="#008687"/>
<stop offset="0.0001" stop-color="#0EA7AD"/>
<stop offset="1" stop-color="#008D7B"/>
</linearGradient>
</defs>
</svg>
