<svg width="16" height="16" viewBox="0 0 16 16" fill="none" xmlns="http://www.w3.org/2000/svg">
<path d="M12.9993 1.33203H2.99925C2.07842 1.33203 1.31092 2.09036 1.53842 2.98203C1.78061 3.92694 2.22676 4.80737 2.84552 5.56146C3.46428 6.31554 4.24065 6.92501 5.12008 7.34703C5.80592 7.67536 6.33258 8.32036 6.33258 9.08036V14.1504C6.33266 14.2924 6.36902 14.432 6.4382 14.556C6.50739 14.68 6.60712 14.7842 6.72791 14.8589C6.84871 14.9335 6.98657 14.976 7.12842 14.9824C7.27027 14.9888 7.4114 14.9588 7.53842 14.8954L9.20508 14.062C9.34348 13.9929 9.4599 13.8865 9.54129 13.755C9.62268 13.6234 9.66583 13.4717 9.66592 13.317V9.08036C9.66592 8.32036 10.1926 7.67536 10.8776 7.34703C11.7574 6.92525 12.5341 6.31588 13.1532 5.56178C13.7722 4.80767 14.2186 3.92712 14.4609 2.98203C14.6868 2.09036 13.9184 1.33203 12.9993 1.33203Z" fill="url(#paint0_linear_915_1737)" stroke="url(#paint1_linear_915_1737)" stroke-width="2"/>
<defs>
<linearGradient id="paint0_linear_915_1737" x1="7.99939" y1="1.33203" x2="7.99939" y2="14.9833" gradientUnits="userSpaceOnUse">
<stop stop-color="#008687"/>
<stop offset="0.0001" stop-color="#0EA7AD"/>
<stop offset="1" stop-color="#008D7B"/>
</linearGradient>
<linearGradient id="paint1_linear_915_1737" x1="7.99939" y1="1.33203" x2="7.99939" y2="14.9833" gradientUnits="userSpaceOnUse">
<stop stop-color="#008687"/>
<stop offset="0.0001" stop-color="#0EA7AD"/>
<stop offset="1" stop-color="#008D7B"/>
</linearGradient>
</defs>
</svg>
